<?xml version="1.0" encoding="UTF-8"?>
<!DOCTYPE svg PUBLIC "-//W3C//DTD SVG 1.1//EN" "http://www.w3.org/Graphics/SVG/1.1/DTD/svg11.dtd">
<svg xmlns="http://www.w3.org/2000/svg" version="1.1" width="580px" height="580px" style="shape-rendering:geometricPrecision; text-rendering:geometricPrecision; image-rendering:optimizeQuality; fill-rule:evenodd; clip-rule:evenodd" xmlns:xlink="http://www.w3.org/1999/xlink">
<g><path style="opacity:1" fill="#eadbb1" d="M 77.5,70.5 C 105.833,70.5 134.167,70.5 162.5,70.5C 162.5,98.8333 162.5,127.167 162.5,155.5C 134.167,155.5 105.833,155.5 77.5,155.5C 77.5,127.167 77.5,98.8333 77.5,70.5 Z"/></g>
<g><path style="opacity:1" fill="#eadbb1" d="M 189.5,70.5 C 217.833,70.5 246.167,70.5 274.5,70.5C 274.5,98.8333 274.5,127.167 274.5,155.5C 246.167,155.5 217.833,155.5 189.5,155.5C 189.5,127.167 189.5,98.8333 189.5,70.5 Z"/></g>
<g><path style="opacity:1" fill="#eadbb1" d="M 301.5,70.5 C 329.833,70.5 358.167,70.5 386.5,70.5C 386.5,98.8333 386.5,127.167 386.5,155.5C 358.167,155.5 329.833,155.5 301.5,155.5C 301.5,127.167 301.5,98.8333 301.5,70.5 Z"/></g>
<g><path style="opacity:1" fill="#eadbb1" d="M 413.5,70.5 C 441.833,70.5 470.167,70.5 498.5,70.5C 498.5,98.8333 498.5,127.167 498.5,155.5C 470.167,155.5 441.833,155.5 413.5,155.5C 413.5,127.167 413.5,98.8333 413.5,70.5 Z"/></g>
<g><path style="opacity:1" fill="#eadbb1" d="M 77.5,182.5 C 105.833,182.5 134.167,182.5 162.5,182.5C 162.5,210.833 162.5,239.167 162.5,267.5C 134.167,267.5 105.833,267.5 77.5,267.5C 77.5,239.167 77.5,210.833 77.5,182.5 Z"/></g>
<g><path style="opacity:1" fill="#eadbb1" d="M 189.5,182.5 C 217.833,182.5 246.167,182.5 274.5,182.5C 274.5,210.833 274.5,239.167 274.5,267.5C 246.167,267.5 217.833,267.5 189.5,267.5C 189.5,239.167 189.5,210.833 189.5,182.5 Z"/></g>
<g><path style="opacity:1" fill="#eadbb1" d="M 301.5,182.5 C 329.833,182.5 358.167,182.5 386.5,182.5C 386.5,210.833 386.5,239.167 386.5,267.5C 358.167,267.5 329.833,267.5 301.5,267.5C 301.5,239.167 301.5,210.833 301.5,182.5 Z"/></g>
<g><path style="opacity:1" fill="#eadbb1" d="M 413.5,182.5 C 441.833,182.5 470.167,182.5 498.5,182.5C 498.5,210.833 498.5,239.167 498.5,267.5C 470.167,267.5 441.833,267.5 413.5,267.5C 413.5,239.167 413.5,210.833 413.5,182.5 Z"/></g>
<g><path style="opacity:1" fill="#eadbb1" d="M 77.5,294.5 C 105.833,294.5 134.167,294.5 162.5,294.5C 162.5,322.833 162.5,351.167 162.5,379.5C 134.167,379.5 105.833,379.5 77.5,379.5C 77.5,351.167 77.5,322.833 77.5,294.5 Z"/></g>
<g><path style="opacity:1" fill="#eadbb1" d="M 189.5,294.5 C 217.833,294.5 246.167,294.5 274.5,294.5C 274.5,322.833 274.5,351.167 274.5,379.5C 246.167,379.5 217.833,379.5 189.5,379.5C 189.5,351.167 189.5,322.833 189.5,294.5 Z"/></g>
<g><path style="opacity:1" fill="#eadbb1" d="M 301.5,294.5 C 329.833,294.5 358.167,294.5 386.5,294.5C 386.5,322.833 386.5,351.167 386.5,379.5C 358.167,379.5 329.833,379.5 301.5,379.5C 301.5,351.167 301.5,322.833 301.5,294.5 Z"/></g>
<g><path style="opacity:1" fill="#eadbb1" d="M 413.5,294.5 C 441.833,294.5 470.167,294.5 498.5,294.5C 498.5,322.833 498.5,351.167 498.5,379.5C 470.167,379.5 441.833,379.5 413.5,379.5C 413.5,351.167 413.5,322.833 413.5,294.5 Z"/></g>
<g><path style="opacity:1" fill="#eadbb1" d="M 77.5,406.5 C 105.833,406.5 134.167,406.5 162.5,406.5C 162.5,434.833 162.5,463.167 162.5,491.5C 134.167,491.5 105.833,491.5 77.5,491.5C 77.5,463.167 77.5,434.833 77.5,406.5 Z"/></g>
<g><path style="opacity:1" fill="#eadbb1" d="M 189.5,406.5 C 217.833,406.5 246.167,406.5 274.5,406.5C 274.5,434.833 274.5,463.167 274.5,491.5C 246.167,491.5 217.833,491.5 189.5,491.5C 189.5,463.167 189.5,434.833 189.5,406.5 Z"/></g>
<g><path style="opacity:1" fill="#eadbb1" d="M 301.5,406.5 C 329.833,406.5 358.167,406.5 386.5,406.5C 386.5,434.833 386.5,463.167 386.5,491.5C 358.167,491.5 329.833,491.5 301.5,491.5C 301.5,463.167 301.5,434.833 301.5,406.5 Z"/></g>
<g><path style="opacity:1" fill="#eadbb1" d="M 413.5,406.5 C 441.833,406.5 470.167,406.5 498.5,406.5C 498.5,434.833 498.5,463.167 498.5,491.5C 470.167,491.5 441.833,491.5 413.5,491.5C 413.5,463.167 413.5,434.833 413.5,406.5 Z"/></g>
</svg>
