<svg id="svg" version="1.1" xmlns="http://www.w3.org/2000/svg" xmlns:xlink="http://www.w3.org/1999/xlink" width="400" height="400" viewBox="0, 0, 400,400"><g id="svgg"><path id="path0" d="M53.697 78.300 L 53.800 107.800 83.300 107.903 L 112.800 108.005 112.800 78.403 L 112.800 48.800 83.197 48.800 L 53.595 48.800 53.697 78.300 M130.800 78.405 L 130.800 108.010 160.400 107.995 L 190.000 107.980 190.000 78.390 L 190.000 48.800 160.400 48.800 L 130.800 48.800 130.800 78.405 M208.000 78.405 L 208.000 108.010 237.600 107.995 L 267.200 107.980 267.200 78.390 L 267.200 48.800 237.600 48.800 L 208.000 48.800 208.000 78.405 M285.297 78.300 L 285.400 107.800 314.800 107.800 L 344.200 107.800 344.303 78.300 L 344.405 48.800 314.800 48.800 L 285.195 48.800 285.297 78.300 M53.600 155.600 L 53.600 185.200 83.200 185.200 L 112.800 185.200 112.800 155.600 L 112.800 126.000 83.200 126.000 L 53.600 126.000 53.600 155.600 M130.800 155.600 L 130.800 185.200 160.400 185.200 L 190.000 185.200 190.000 155.600 L 190.000 126.000 160.400 126.000 L 130.800 126.000 130.800 155.600 M208.000 155.600 L 208.000 185.200 237.600 185.200 L 267.200 185.200 267.200 155.600 L 267.200 126.000 237.600 126.000 L 208.000 126.000 208.000 155.600 M285.200 155.600 L 285.200 185.200 314.800 185.200 L 344.400 185.200 344.400 155.600 L 344.400 126.000 314.800 126.000 L 285.200 126.000 285.200 155.600 M53.785 203.697 C 53.679 203.974,53.640 217.250,53.697 233.200 L 53.800 262.200 83.303 262.303 L 112.805 262.405 112.703 232.903 L 112.600 203.400 83.288 203.297 C 60.051 203.216,53.937 203.299,53.785 203.697 M130.800 232.803 L 130.800 262.405 160.300 262.303 L 189.800 262.200 189.903 232.700 L 190.005 203.200 160.403 203.200 L 130.800 203.200 130.800 232.803 M208.097 232.697 L 208.200 262.200 237.703 262.303 L 267.205 262.405 267.103 232.903 L 267.000 203.400 237.497 203.297 L 207.995 203.195 208.097 232.697 M285.467 203.467 C 285.320 203.613,285.200 216.936,285.200 233.072 L 285.200 262.410 314.800 262.395 L 344.400 262.380 344.400 232.790 L 344.400 203.200 315.067 203.200 C 298.933 203.200,285.613 203.320,285.467 203.467 M53.600 310.000 L 53.600 339.600 83.200 339.600 L 112.800 339.600 112.800 310.000 L 112.800 280.400 83.200 280.400 L 53.600 280.400 53.600 310.000 M130.897 309.897 L 131.000 339.400 160.400 339.400 L 189.800 339.400 189.800 310.000 L 189.800 280.600 160.297 280.497 L 130.795 280.395 130.897 309.897 M208.000 309.997 L 208.000 339.600 237.603 339.600 L 267.205 339.600 267.103 310.100 L 267.000 280.600 237.500 280.497 L 208.000 280.395 208.000 309.997 M285.297 309.900 L 285.400 339.400 314.800 339.400 L 344.200 339.400 344.303 309.900 L 344.405 280.400 314.800 280.400 L 285.195 280.400 285.297 309.900 " stroke="none" fill="#bcac8c" fill-rule="evenodd"></path><path id="path1" d="" stroke="none" fill="#c0ac8c" fill-rule="evenodd"></path><path id="path2" d="" stroke="none" fill="#c0ac8c" fill-rule="evenodd"></path><path id="path3" d="" stroke="none" fill="#c0ac8c" fill-rule="evenodd"></path><path id="path4" d="" stroke="none" fill="#c0ac8c" fill-rule="evenodd"></path></g></svg>