<svg id="svg" version="1.1" xmlns="http://www.w3.org/2000/svg" xmlns:xlink="http://www.w3.org/1999/xlink" width="400" height="400" viewBox="0, 0, 400,400"><g id="svgg"><path id="path0" d="M50.603 31.196 C 50.465 31.418,49.913 31.600,49.376 31.600 C 48.839 31.600,48.400 31.780,48.400 32.000 C 48.400 32.220,48.051 32.400,47.624 32.400 C 47.197 32.400,46.736 32.580,46.600 32.800 C 46.464 33.020,46.023 33.200,45.619 33.200 C 45.216 33.200,44.782 33.470,44.655 33.800 C 44.529 34.130,44.129 34.400,43.766 34.400 C 43.092 34.400,38.400 39.064,38.400 39.735 C 38.400 39.939,38.085 40.399,37.700 40.757 C 36.723 41.667,36.000 43.043,36.000 43.995 C 36.000 44.438,35.820 44.800,35.600 44.800 C 35.380 44.800,35.200 45.239,35.200 45.776 C 35.200 46.313,35.020 46.864,34.800 47.000 C 34.288 47.316,34.247 111.314,34.758 112.305 C 34.955 112.687,35.720 114.253,36.458 115.784 C 37.196 117.316,38.384 119.206,39.098 119.984 C 39.812 120.763,40.397 121.625,40.398 121.900 C 40.399 122.175,40.715 122.401,41.100 122.401 C 41.485 122.402,42.160 122.941,42.600 123.600 C 43.040 124.259,43.693 124.798,44.051 124.799 C 44.409 124.799,44.926 125.070,45.200 125.400 C 45.474 125.730,45.946 126.000,46.249 126.000 C 46.552 126.000,46.800 126.141,46.800 126.313 C 46.800 126.485,47.295 126.666,47.900 126.716 C 48.505 126.766,49.060 126.985,49.133 127.203 C 49.207 127.422,49.871 127.600,50.610 127.600 C 51.348 127.600,52.064 127.780,52.200 128.000 C 52.361 128.261,63.204 128.400,83.424 128.400 C 103.808 128.400,114.400 128.263,114.400 128.000 C 114.400 127.780,114.904 127.600,115.520 127.600 C 116.714 127.600,118.792 126.787,118.797 126.318 C 118.799 126.163,119.435 125.917,120.211 125.772 C 120.987 125.626,121.803 125.168,122.025 124.753 C 122.247 124.339,122.647 124.000,122.914 124.000 C 123.545 123.999,125.654 122.187,125.363 121.896 C 125.240 121.773,125.516 121.554,125.976 121.408 C 126.435 121.262,126.708 120.975,126.582 120.771 C 126.456 120.567,126.633 120.400,126.976 120.400 C 127.319 120.400,127.600 120.106,127.600 119.747 C 127.600 119.388,127.936 118.803,128.346 118.447 C 128.757 118.091,129.221 117.214,129.378 116.500 C 129.535 115.785,129.784 115.199,129.932 115.197 C 130.390 115.192,131.200 113.098,131.200 111.920 C 131.200 111.304,131.380 110.800,131.600 110.800 C 131.863 110.800,132.000 100.133,132.000 79.600 C 132.000 59.067,131.863 48.400,131.600 48.400 C 131.380 48.400,131.200 47.770,131.200 47.000 C 131.200 46.230,131.020 45.600,130.800 45.600 C 130.580 45.600,130.400 45.272,130.400 44.871 C 130.400 43.857,129.018 41.115,128.679 41.455 C 128.525 41.608,128.400 41.345,128.400 40.870 C 128.400 40.395,127.860 39.491,127.200 38.860 C 126.540 38.229,126.000 37.508,126.000 37.257 C 126.000 37.006,125.820 36.800,125.601 36.800 C 125.381 36.800,124.534 36.170,123.718 35.400 C 122.901 34.630,122.001 34.000,121.717 34.000 C 121.432 34.000,121.200 33.809,121.200 33.576 C 121.200 33.343,121.035 33.255,120.832 33.380 C 120.630 33.505,120.193 33.336,119.861 33.004 C 119.529 32.672,118.985 32.400,118.652 32.400 C 118.319 32.400,117.936 32.220,117.800 32.000 C 117.664 31.780,117.203 31.600,116.776 31.600 C 116.349 31.600,116.000 31.424,116.000 31.209 C 116.000 30.661,50.942 30.647,50.603 31.196 M165.600 31.200 C 165.600 31.420,165.060 31.600,164.400 31.600 C 163.740 31.600,163.200 31.780,163.200 32.000 C 163.200 32.220,162.790 32.400,162.288 32.400 C 161.787 32.400,161.117 32.760,160.800 33.200 C 160.483 33.640,159.925 34.000,159.561 34.000 C 159.196 34.000,158.674 34.270,158.400 34.600 C 158.126 34.930,157.760 35.200,157.585 35.200 C 157.074 35.200,154.438 37.905,154.697 38.164 C 154.827 38.294,154.723 38.400,154.467 38.400 C 154.210 38.400,154.000 38.630,154.000 38.912 C 154.000 39.193,153.640 39.683,153.200 40.000 C 152.760 40.317,152.400 40.786,152.400 41.043 C 152.400 41.805,151.343 43.609,151.061 43.327 C 150.917 43.184,150.800 43.446,150.800 43.910 C 150.800 44.373,150.637 44.854,150.438 44.977 C 150.238 45.100,150.169 45.561,150.284 46.000 C 150.401 46.447,150.296 46.800,150.047 46.800 C 149.721 46.800,149.600 55.611,149.600 79.200 C 149.600 97.998,149.750 111.600,149.958 111.600 C 150.155 111.600,150.422 112.365,150.552 113.300 C 150.681 114.235,150.820 115.225,150.860 115.500 C 150.901 115.775,151.039 116.000,151.169 116.000 C 151.299 116.000,151.659 116.574,151.969 117.275 C 152.900 119.378,160.013 126.000,161.341 126.000 C 161.704 126.000,162.000 126.180,162.000 126.400 C 162.000 126.620,162.450 126.800,163.000 126.800 C 163.550 126.800,164.000 126.980,164.000 127.200 C 164.000 127.420,164.619 127.600,165.376 127.600 C 166.133 127.600,166.864 127.780,167.000 128.000 C 167.161 128.261,177.996 128.400,198.200 128.400 C 218.404 128.400,229.239 128.261,229.400 128.000 C 229.536 127.780,230.267 127.600,231.024 127.600 C 231.781 127.600,232.400 127.420,232.400 127.200 C 232.400 126.980,232.760 126.800,233.200 126.800 C 233.640 126.800,234.000 126.640,234.000 126.443 C 234.000 126.247,234.484 125.965,235.076 125.817 C 237.015 125.330,243.200 119.873,243.200 118.648 C 243.200 118.375,243.560 117.764,244.000 117.292 C 244.440 116.820,244.800 116.167,244.800 115.840 C 244.800 115.514,244.992 115.128,245.227 114.983 C 245.462 114.838,245.558 114.467,245.440 114.160 C 245.322 113.852,245.399 113.600,245.613 113.600 C 245.826 113.600,246.000 112.970,246.000 112.200 C 246.000 111.430,246.180 110.800,246.400 110.800 C 246.663 110.800,246.800 100.000,246.800 79.200 C 246.800 61.098,246.649 47.600,246.445 47.600 C 246.250 47.600,245.963 46.749,245.807 45.708 C 245.651 44.667,245.181 43.335,244.762 42.746 C 244.343 42.158,244.000 41.462,244.000 41.199 C 244.000 40.936,243.485 40.240,242.856 39.652 C 242.227 39.065,241.590 38.200,241.441 37.731 C 241.292 37.261,240.550 36.583,239.791 36.222 C 239.032 35.862,238.222 35.215,237.991 34.784 C 237.761 34.353,237.218 34.000,236.786 34.000 C 236.354 34.000,236.000 33.820,236.000 33.600 C 236.000 33.380,235.640 33.200,235.200 33.200 C 234.760 33.200,234.399 33.065,234.397 32.900 C 234.392 32.448,232.369 31.600,231.297 31.600 C 230.769 31.600,230.462 31.424,230.600 31.200 C 230.764 30.935,219.871 30.800,198.224 30.800 C 176.741 30.800,165.600 30.937,165.600 31.200 M279.800 31.200 C 279.664 31.420,279.113 31.600,278.576 31.600 C 278.039 31.600,277.600 31.780,277.600 32.000 C 277.600 32.220,277.240 32.400,276.800 32.400 C 276.360 32.400,276.000 32.580,276.000 32.800 C 276.000 33.020,275.629 33.200,275.176 33.200 C 274.723 33.200,274.464 33.380,274.600 33.600 C 274.736 33.820,274.522 34.003,274.124 34.006 C 273.281 34.014,270.698 36.165,271.077 36.544 C 271.218 36.685,270.987 36.800,270.564 36.800 C 270.091 36.800,269.587 37.271,269.254 38.023 C 268.956 38.696,268.621 39.154,268.509 39.042 C 268.188 38.721,267.200 39.875,267.200 40.571 C 267.200 40.917,267.009 41.200,266.776 41.200 C 266.543 41.200,266.464 41.380,266.600 41.600 C 266.736 41.820,266.702 42.001,266.524 42.003 C 266.099 42.007,265.200 43.961,265.200 44.880 C 265.200 45.276,265.020 45.600,264.800 45.600 C 264.580 45.600,264.400 46.230,264.400 47.000 C 264.400 47.770,264.220 48.400,264.000 48.400 C 263.737 48.400,263.600 59.067,263.600 79.600 C 263.600 100.133,263.737 110.800,264.000 110.800 C 264.220 110.800,264.400 111.329,264.400 111.976 C 264.400 112.623,264.580 113.264,264.800 113.400 C 265.020 113.536,265.200 113.997,265.200 114.424 C 265.200 114.851,265.366 115.200,265.568 115.200 C 265.771 115.200,266.065 115.785,266.222 116.500 C 266.379 117.215,266.843 118.035,267.254 118.323 C 267.664 118.610,268.000 119.079,268.000 119.366 C 268.000 120.043,271.957 124.000,272.634 124.000 C 272.921 124.000,273.390 124.336,273.677 124.746 C 273.965 125.157,274.785 125.621,275.500 125.778 C 276.215 125.935,276.800 126.229,276.800 126.432 C 276.800 126.634,277.149 126.800,277.576 126.800 C 278.003 126.800,278.464 126.980,278.600 127.200 C 278.736 127.420,279.377 127.600,280.024 127.600 C 280.671 127.600,281.200 127.780,281.200 128.000 C 281.200 128.263,291.867 128.400,312.400 128.400 C 332.933 128.400,343.600 128.263,343.600 128.000 C 343.600 127.780,344.230 127.600,345.000 127.600 C 345.770 127.600,346.400 127.420,346.400 127.200 C 346.400 126.980,346.724 126.800,347.120 126.800 C 348.039 126.800,349.993 125.901,349.997 125.476 C 349.999 125.298,350.180 125.264,350.400 125.400 C 350.620 125.536,350.800 125.457,350.800 125.224 C 350.800 124.991,351.083 124.800,351.429 124.800 C 352.125 124.800,353.279 123.812,352.958 123.491 C 352.846 123.379,353.304 123.044,353.977 122.746 C 354.729 122.413,355.200 121.909,355.200 121.436 C 355.200 121.013,355.315 120.782,355.456 120.923 C 355.835 121.302,357.986 118.719,357.994 117.876 C 357.997 117.478,358.180 117.264,358.400 117.400 C 358.620 117.536,358.800 117.277,358.800 116.824 C 358.800 116.371,358.980 116.000,359.200 116.000 C 359.420 116.000,359.600 115.640,359.600 115.200 C 359.600 114.760,359.780 114.400,360.000 114.400 C 360.220 114.400,360.400 113.961,360.400 113.424 C 360.400 112.887,360.580 112.336,360.800 112.200 C 361.061 112.038,361.200 100.737,361.200 79.600 C 361.200 58.463,361.061 47.162,360.800 47.000 C 360.580 46.864,360.400 46.313,360.400 45.776 C 360.400 45.239,360.220 44.800,360.000 44.800 C 359.780 44.800,359.600 44.438,359.600 43.995 C 359.600 43.154,358.955 41.817,358.100 40.887 C 357.825 40.588,357.600 40.186,357.600 39.994 C 357.600 39.538,352.462 34.400,352.006 34.400 C 351.814 34.400,351.412 34.175,351.113 33.900 C 350.183 33.045,348.846 32.400,348.005 32.400 C 347.562 32.400,347.200 32.220,347.200 32.000 C 347.200 31.780,346.761 31.600,346.224 31.600 C 345.687 31.600,345.136 31.420,345.000 31.200 C 344.838 30.939,333.537 30.800,312.400 30.800 C 291.263 30.800,279.962 30.939,279.800 31.200 M112.100 40.190 C 113.145 40.350,114.000 40.620,114.000 40.790 C 114.000 40.961,114.557 41.211,115.237 41.347 C 116.420 41.584,118.800 43.667,118.800 44.466 C 118.800 44.676,118.964 44.746,119.165 44.621 C 119.366 44.497,119.770 44.936,120.063 45.598 C 120.356 46.259,120.731 46.800,120.898 46.800 C 121.064 46.800,121.200 47.160,121.200 47.600 C 121.200 48.040,121.380 48.400,121.600 48.400 C 121.820 48.400,122.000 48.670,122.000 49.000 C 122.000 49.330,122.135 49.600,122.300 49.600 C 122.863 49.600,122.262 110.513,121.698 110.701 C 121.421 110.793,121.290 111.021,121.405 111.208 C 121.521 111.395,121.207 111.965,120.708 112.474 C 120.208 112.983,119.534 113.915,119.208 114.545 C 118.883 115.174,118.246 115.831,117.792 116.003 C 117.338 116.176,116.727 116.605,116.435 116.958 C 116.142 117.311,115.553 117.600,115.127 117.600 C 114.701 117.600,114.464 117.780,114.600 118.000 C 114.736 118.220,114.792 118.438,114.724 118.485 C 114.264 118.802,53.278 118.935,53.333 118.619 C 53.370 118.409,53.130 118.210,52.800 118.176 C 51.698 118.064,50.400 117.511,50.400 117.153 C 50.400 116.959,50.010 116.800,49.533 116.800 C 49.057 116.800,48.782 116.685,48.923 116.544 C 49.177 116.290,46.853 114.019,46.327 114.006 C 46.177 114.003,45.928 113.595,45.774 113.100 C 45.621 112.605,45.159 111.722,44.748 111.138 C 44.316 110.526,44.000 109.393,44.000 108.462 C 44.000 107.574,43.820 106.736,43.600 106.600 C 43.049 106.259,43.049 52.141,43.600 51.800 C 43.820 51.664,44.000 51.023,44.000 50.376 C 44.000 49.729,44.210 49.200,44.467 49.200 C 44.723 49.200,44.824 49.090,44.689 48.956 C 44.555 48.822,44.795 48.060,45.223 47.262 C 45.650 46.464,46.000 45.628,46.000 45.403 C 46.000 44.604,49.272 41.989,50.467 41.835 C 50.613 41.816,50.868 41.665,51.033 41.500 C 51.198 41.335,51.674 41.200,52.090 41.200 C 52.507 41.200,52.736 41.020,52.600 40.800 C 52.451 40.558,52.996 40.400,53.976 40.400 C 54.869 40.400,55.600 40.218,55.600 39.995 C 55.600 39.527,108.975 39.712,112.100 40.190 M225.200 40.000 C 225.200 40.220,226.010 40.400,227.000 40.400 C 227.990 40.400,228.800 40.558,228.800 40.750 C 228.800 40.943,229.337 41.207,229.993 41.339 C 231.344 41.609,236.000 45.976,236.000 46.973 C 236.000 47.318,236.180 47.600,236.400 47.600 C 236.620 47.600,236.800 48.039,236.800 48.576 C 236.800 49.113,236.980 49.664,237.200 49.800 C 237.461 49.961,237.600 60.404,237.600 79.824 C 237.600 99.408,237.463 109.600,237.200 109.600 C 236.980 109.600,236.800 109.971,236.800 110.424 C 236.800 110.877,236.620 111.136,236.400 111.000 C 236.180 110.864,236.000 111.123,236.000 111.576 C 236.000 112.029,235.820 112.400,235.600 112.400 C 235.380 112.400,235.200 112.670,235.200 113.000 C 235.200 113.814,232.252 116.800,231.447 116.800 C 231.091 116.800,230.800 116.980,230.800 117.200 C 230.800 117.420,230.545 117.600,230.233 117.600 C 229.922 117.600,229.592 117.825,229.500 118.100 C 229.275 118.776,168.000 119.063,168.000 118.388 C 168.000 118.149,167.800 118.076,167.555 118.228 C 167.311 118.379,166.996 118.335,166.855 118.130 C 166.715 117.926,165.954 117.458,165.165 117.091 C 164.376 116.724,163.396 115.980,162.988 115.436 C 162.580 114.893,162.114 114.530,161.952 114.630 C 161.790 114.730,161.542 114.446,161.400 114.000 C 161.258 113.554,160.975 113.292,160.771 113.418 C 160.567 113.544,160.400 113.187,160.400 112.624 C 160.400 112.061,160.220 111.600,160.000 111.600 C 159.780 111.600,159.600 111.150,159.600 110.600 C 159.600 110.050,159.420 109.600,159.200 109.600 C 158.937 109.600,158.800 99.360,158.800 79.680 C 158.800 49.955,158.895 47.616,160.100 47.603 C 160.265 47.601,160.400 47.305,160.400 46.944 C 160.400 46.583,160.714 46.059,161.097 45.778 C 161.481 45.498,161.796 44.944,161.797 44.547 C 161.799 44.151,162.204 43.624,162.697 43.378 C 163.191 43.131,163.911 42.644,164.297 42.296 C 164.684 41.947,165.497 41.538,166.104 41.387 C 166.711 41.235,167.306 40.951,167.427 40.756 C 167.548 40.560,168.267 40.400,169.024 40.400 C 169.781 40.400,170.400 40.220,170.400 40.000 C 170.400 39.737,179.800 39.600,197.800 39.600 C 215.800 39.600,225.200 39.737,225.200 40.000 M340.200 40.000 C 340.336 40.220,340.966 40.400,341.600 40.400 C 342.234 40.400,342.851 40.560,342.972 40.755 C 343.093 40.950,343.806 41.225,344.557 41.366 C 345.308 41.506,346.026 41.890,346.151 42.217 C 346.277 42.544,346.837 42.986,347.397 43.199 C 347.957 43.412,348.588 44.043,348.801 44.603 C 349.014 45.163,349.456 45.723,349.783 45.849 C 350.110 45.974,350.494 46.692,350.634 47.443 C 350.775 48.194,351.050 48.907,351.245 49.028 C 351.440 49.149,351.600 49.766,351.600 50.400 C 351.600 51.034,351.780 51.664,352.000 51.800 C 352.260 51.961,352.400 61.530,352.400 79.200 C 352.400 96.870,352.260 106.439,352.000 106.600 C 351.780 106.736,351.600 107.521,351.600 108.344 C 351.600 109.896,350.841 111.991,350.276 111.997 C 350.098 111.999,350.072 112.193,350.218 112.429 C 350.364 112.665,349.892 113.340,349.168 113.929 C 348.445 114.518,347.494 115.405,347.054 115.900 C 346.615 116.395,346.018 116.800,345.728 116.800 C 345.438 116.800,345.200 116.980,345.200 117.200 C 345.200 117.420,344.855 117.600,344.433 117.600 C 344.012 117.600,343.592 117.825,343.500 118.100 C 343.318 118.645,284.418 119.081,283.208 118.546 C 282.874 118.398,282.285 118.316,281.900 118.364 C 281.515 118.411,281.200 118.259,281.200 118.025 C 281.200 117.791,280.880 117.600,280.488 117.600 C 280.097 117.600,279.517 117.240,279.200 116.800 C 278.883 116.360,278.450 116.000,278.237 116.000 C 277.693 116.000,276.000 114.350,276.000 113.819 C 276.000 113.575,275.640 113.117,275.200 112.800 C 274.760 112.483,274.400 111.903,274.400 111.512 C 274.400 111.120,274.209 110.800,273.975 110.800 C 273.741 110.800,273.589 110.485,273.636 110.100 C 273.684 109.715,273.602 109.126,273.454 108.792 C 272.919 107.582,273.355 48.682,273.900 48.500 C 274.175 48.408,274.400 47.988,274.400 47.567 C 274.400 47.145,274.580 46.800,274.800 46.800 C 275.020 46.800,275.200 46.562,275.200 46.272 C 275.200 45.982,275.605 45.385,276.100 44.946 C 276.595 44.506,277.482 43.555,278.071 42.832 C 278.660 42.108,279.335 41.636,279.571 41.782 C 279.807 41.928,280.001 41.902,280.003 41.724 C 280.009 41.159,282.104 40.400,283.656 40.400 C 284.479 40.400,285.264 40.220,285.400 40.000 C 285.561 39.740,295.130 39.600,312.800 39.600 C 330.470 39.600,340.039 39.740,340.200 40.000 M50.568 146.348 C 50.696 146.556,50.461 146.636,50.041 146.527 C 49.624 146.417,48.813 146.635,48.241 147.010 C 47.668 147.385,47.200 147.574,47.200 147.430 C 47.200 147.287,46.806 147.536,46.325 147.984 C 45.843 148.433,45.241 148.800,44.987 148.800 C 44.732 148.800,44.213 149.144,43.833 149.564 C 43.452 149.984,42.697 150.440,42.154 150.576 C 41.611 150.712,41.275 150.998,41.407 151.212 C 41.539 151.425,41.444 151.600,41.195 151.600 C 40.611 151.600,39.600 152.611,39.600 153.195 C 39.600 153.444,39.392 153.518,39.137 153.361 C 38.820 153.165,38.745 153.347,38.900 153.938 C 39.024 154.413,38.963 154.701,38.764 154.578 C 38.566 154.455,38.179 154.860,37.905 155.477 C 37.630 156.095,37.089 156.949,36.703 157.375 C 36.316 157.802,36.000 158.477,36.000 158.875 C 36.000 159.274,35.820 159.600,35.600 159.600 C 35.380 159.600,35.200 160.140,35.200 160.800 C 35.200 161.460,35.020 162.000,34.800 162.000 C 34.537 162.000,34.400 173.059,34.400 194.376 C 34.400 215.529,34.539 226.838,34.800 227.000 C 35.020 227.136,35.200 227.561,35.200 227.944 C 35.200 228.819,36.099 230.793,36.500 230.797 C 36.665 230.799,36.800 231.160,36.800 231.600 C 36.800 232.040,36.980 232.400,37.200 232.400 C 37.420 232.400,37.600 232.627,37.600 232.904 C 37.600 233.181,38.050 233.893,38.600 234.487 C 39.150 235.080,39.600 235.769,39.600 236.018 C 39.600 236.684,41.279 237.971,42.167 237.987 C 42.588 237.994,42.817 238.117,42.674 238.260 C 42.352 238.581,44.414 240.399,45.100 240.400 C 45.375 240.400,45.600 240.569,45.600 240.775 C 45.600 240.982,46.410 241.272,47.400 241.421 C 48.390 241.569,49.200 241.850,49.200 242.045 C 49.200 242.240,49.650 242.400,50.200 242.400 C 50.750 242.400,51.200 242.580,51.200 242.800 C 51.200 243.063,62.000 243.200,82.800 243.200 C 103.600 243.200,114.400 243.063,114.400 242.800 C 114.400 242.580,115.131 242.400,116.024 242.400 C 117.109 242.400,117.556 242.253,117.374 241.957 C 117.189 241.659,117.378 241.603,117.950 241.784 C 118.417 241.932,118.803 241.907,118.806 241.727 C 118.810 241.547,119.746 240.950,120.888 240.400 C 124.289 238.761,128.803 233.918,129.381 231.287 C 129.536 230.579,129.829 230.000,130.032 230.000 C 130.234 230.000,130.400 229.730,130.400 229.400 C 130.400 229.070,130.580 228.800,130.800 228.800 C 131.020 228.800,131.200 228.080,131.200 227.200 C 131.200 226.320,131.380 225.600,131.600 225.600 C 131.863 225.600,132.000 214.933,132.000 194.400 C 132.000 173.867,131.863 163.200,131.600 163.200 C 131.380 163.200,131.200 162.570,131.200 161.800 C 131.200 161.030,131.020 160.400,130.800 160.400 C 130.580 160.400,130.400 159.961,130.400 159.424 C 130.400 158.887,130.217 158.334,129.993 158.196 C 129.770 158.058,129.691 157.776,129.819 157.570 C 129.946 157.363,129.770 157.087,129.428 156.955 C 129.085 156.824,128.904 156.555,129.026 156.358 C 129.148 156.161,129.057 156.000,128.824 156.000 C 128.591 156.000,128.400 155.787,128.400 155.526 C 128.400 155.266,127.516 154.200,126.435 153.159 C 125.354 152.117,124.574 151.160,124.701 151.032 C 124.829 150.904,124.732 150.800,124.485 150.800 C 124.238 150.800,123.586 150.350,123.036 149.800 C 122.486 149.250,121.748 148.800,121.395 148.800 C 121.042 148.800,120.864 148.620,121.000 148.400 C 121.136 148.180,120.877 148.000,120.424 148.000 C 119.971 148.000,119.600 147.820,119.600 147.600 C 119.600 147.380,119.255 147.200,118.833 147.200 C 118.412 147.200,117.992 146.975,117.900 146.700 C 117.769 146.306,110.556 146.175,84.034 146.085 C 62.956 146.013,50.422 146.111,50.568 146.348 M164.805 146.287 C 164.258 146.393,163.330 146.822,162.743 147.240 C 162.157 147.658,161.389 148.000,161.038 148.000 C 160.687 148.000,160.400 148.180,160.400 148.400 C 160.400 148.620,160.083 148.800,159.696 148.800 C 159.309 148.800,158.763 149.167,158.483 149.616 C 158.203 150.064,157.811 150.330,157.612 150.207 C 157.412 150.084,157.064 150.302,156.837 150.692 C 156.610 151.081,156.419 151.241,156.412 151.046 C 156.388 150.339,154.013 153.421,154.006 154.167 C 154.003 154.588,153.889 154.822,153.752 154.686 C 153.397 154.331,152.400 155.426,152.400 156.171 C 152.400 156.517,152.220 156.800,152.000 156.800 C 151.780 156.800,151.600 157.034,151.600 157.320 C 151.600 157.997,150.672 159.993,150.355 159.997 C 150.221 159.999,150.197 160.450,150.302 161.000 C 150.414 161.584,150.307 162.000,150.047 162.000 C 149.721 162.000,149.600 170.759,149.600 194.200 C 149.600 216.928,149.727 226.400,150.031 226.400 C 150.281 226.400,150.415 227.027,150.350 227.900 C 150.282 228.827,150.407 229.367,150.679 229.314 C 150.940 229.262,151.028 229.571,150.896 230.076 C 150.744 230.656,150.821 230.834,151.137 230.639 C 151.430 230.458,151.600 230.653,151.600 231.172 C 151.600 231.971,151.841 232.335,154.094 234.937 C 154.695 235.632,155.190 236.429,155.194 236.710 C 155.197 236.990,155.637 237.386,156.171 237.589 C 156.705 237.792,157.530 238.283,158.005 238.679 C 158.479 239.076,159.341 239.799,159.920 240.287 C 160.500 240.775,161.519 241.281,162.187 241.411 C 163.361 241.639,164.656 242.115,166.095 242.847 C 167.090 243.353,229.086 243.307,229.400 242.800 C 229.536 242.580,230.267 242.400,231.024 242.400 C 231.781 242.400,232.400 242.228,232.400 242.018 C 232.400 241.671,234.535 241.075,235.330 241.201 C 235.512 241.229,235.983 240.881,236.377 240.426 C 236.771 239.972,237.222 239.600,237.378 239.600 C 237.535 239.600,238.357 238.899,239.206 238.041 C 240.055 237.184,240.851 236.584,240.975 236.708 C 241.099 236.832,241.200 236.732,241.200 236.485 C 241.200 236.238,241.650 235.586,242.200 235.036 C 242.750 234.486,243.200 233.728,243.200 233.352 C 243.200 232.975,243.311 232.778,243.448 232.914 C 243.803 233.269,244.800 232.174,244.800 231.429 C 244.800 231.083,244.980 230.800,245.200 230.800 C 245.420 230.800,245.572 230.665,245.538 230.500 C 245.382 229.742,246.141 226.000,246.452 226.000 C 246.647 226.000,246.800 211.988,246.800 194.176 C 246.800 176.130,246.649 162.446,246.451 162.569 C 246.258 162.688,245.980 161.872,245.832 160.757 C 245.538 158.537,244.975 157.292,243.900 156.482 C 243.515 156.192,243.200 155.738,243.200 155.473 C 243.200 155.208,242.786 154.544,242.279 153.996 C 241.773 153.448,241.239 152.685,241.092 152.300 C 240.945 151.915,240.594 151.600,240.311 151.600 C 240.029 151.600,239.290 151.062,238.669 150.405 C 238.049 149.748,236.880 148.906,236.071 148.534 C 235.262 148.162,234.060 147.485,233.400 147.029 C 232.250 146.234,168.618 145.546,164.805 146.287 M279.100 146.291 C 278.275 146.378,277.600 146.617,277.600 146.824 C 277.600 147.031,277.240 147.200,276.800 147.200 C 276.360 147.200,276.000 147.336,276.000 147.502 C 276.000 147.669,275.415 148.060,274.700 148.373 C 272.611 149.285,266.898 155.257,266.160 157.300 C 266.021 157.685,265.748 158.000,265.553 158.000 C 265.359 158.000,265.200 158.540,265.200 159.200 C 265.200 159.860,265.020 160.400,264.800 160.400 C 264.580 160.400,264.400 161.030,264.400 161.800 C 264.400 162.570,264.218 163.200,263.995 163.200 C 263.523 163.200,263.706 224.357,264.186 227.100 C 264.350 228.035,264.645 228.800,264.842 228.800 C 265.039 228.800,265.200 229.070,265.200 229.400 C 265.200 229.730,265.360 230.000,265.555 230.000 C 265.751 230.000,266.025 230.606,266.164 231.347 C 266.475 233.009,272.055 239.600,273.151 239.600 C 273.832 239.600,275.587 240.680,275.327 240.939 C 275.184 241.083,275.446 241.200,275.910 241.200 C 276.373 241.200,276.866 241.383,277.004 241.607 C 277.142 241.830,277.410 241.917,277.600 241.800 C 277.790 241.683,278.058 241.770,278.196 241.993 C 278.334 242.217,279.067 242.400,279.824 242.400 C 280.581 242.400,281.200 242.580,281.200 242.800 C 281.200 243.063,292.000 243.200,312.800 243.200 C 333.600 243.200,344.400 243.063,344.400 242.800 C 344.400 242.580,344.850 242.400,345.400 242.400 C 345.950 242.400,346.400 242.240,346.400 242.045 C 346.400 241.850,347.210 241.569,348.200 241.421 C 349.190 241.272,350.000 240.982,350.000 240.775 C 350.000 240.569,350.283 240.400,350.629 240.400 C 351.359 240.400,352.400 239.462,352.400 238.805 C 352.400 238.556,352.580 238.464,352.800 238.600 C 353.020 238.736,353.200 238.657,353.200 238.424 C 353.200 238.191,353.425 237.994,353.700 237.987 C 354.432 237.967,356.000 236.561,356.000 235.924 C 356.000 235.623,356.350 235.124,356.779 234.815 C 357.207 234.507,357.466 234.107,357.355 233.927 C 357.244 233.747,357.343 233.600,357.576 233.600 C 357.809 233.600,358.000 233.330,358.000 233.000 C 358.000 232.670,358.180 232.400,358.400 232.400 C 358.620 232.400,358.800 232.040,358.800 231.600 C 358.800 231.160,358.935 230.799,359.100 230.797 C 359.506 230.793,360.400 228.814,360.400 227.920 C 360.400 227.524,360.580 227.200,360.800 227.200 C 361.063 227.200,361.200 216.067,361.200 194.600 C 361.200 173.133,361.063 162.000,360.800 162.000 C 360.580 162.000,360.400 161.460,360.400 160.800 C 360.400 160.140,360.220 159.600,360.000 159.600 C 359.780 159.600,359.600 159.216,359.600 158.747 C 359.600 158.278,359.285 157.603,358.900 157.247 C 358.515 156.891,357.848 155.908,357.417 155.063 C 356.508 153.278,353.836 150.400,353.089 150.400 C 352.807 150.400,352.317 150.040,352.000 149.600 C 351.683 149.160,351.137 148.800,350.787 148.800 C 350.437 148.800,349.764 148.440,349.292 148.000 C 348.820 147.560,348.167 147.200,347.840 147.200 C 347.514 147.200,347.125 147.003,346.977 146.762 C 346.828 146.522,346.283 146.406,345.765 146.505 C 345.248 146.603,344.919 146.530,345.036 146.342 C 345.238 146.015,282.209 145.966,279.100 146.291 M109.600 154.800 C 109.600 155.020,110.410 155.200,111.400 155.200 C 112.390 155.200,113.200 155.380,113.200 155.600 C 113.200 155.820,113.650 156.000,114.200 156.000 C 114.750 156.000,115.200 156.180,115.200 156.400 C 115.200 156.620,115.528 156.800,115.929 156.800 C 116.833 156.800,121.200 161.464,121.200 162.429 C 121.200 162.816,121.425 163.208,121.700 163.300 C 122.094 163.432,122.200 170.049,122.200 194.600 C 122.200 219.151,122.094 225.769,121.700 225.900 C 121.425 225.992,121.200 226.322,121.200 226.633 C 121.200 226.945,121.020 227.200,120.800 227.200 C 120.580 227.200,120.400 227.477,120.400 227.816 C 120.400 228.754,117.641 231.286,115.400 232.403 C 114.300 232.951,113.340 233.535,113.267 233.700 C 113.193 233.865,99.638 234.000,83.143 234.000 C 63.251 234.000,53.236 233.865,53.400 233.600 C 53.544 233.367,53.137 233.200,52.424 233.200 C 51.751 233.200,51.200 233.020,51.200 232.800 C 51.200 232.580,50.958 232.400,50.663 232.400 C 49.950 232.400,45.602 228.237,45.591 227.543 C 45.586 227.244,45.230 226.550,44.800 226.000 C 44.352 225.427,44.014 224.370,44.009 223.524 C 44.004 222.712,43.820 221.936,43.600 221.800 C 43.340 221.639,43.200 211.996,43.200 194.176 C 43.200 176.192,43.337 166.800,43.600 166.800 C 43.820 166.800,44.000 166.170,44.000 165.400 C 44.000 164.630,44.180 164.000,44.400 164.000 C 44.620 164.000,44.800 163.640,44.800 163.200 C 44.800 162.760,45.001 162.400,45.247 162.400 C 45.503 162.400,45.600 162.043,45.474 161.560 C 45.353 161.099,45.353 160.820,45.475 160.941 C 45.765 161.232,46.800 160.185,46.800 159.600 C 46.800 158.958,47.831 158.000,48.522 158.000 C 48.841 158.000,49.326 157.730,49.600 157.400 C 49.874 157.070,50.346 156.800,50.649 156.800 C 50.952 156.800,51.200 156.620,51.200 156.400 C 51.200 156.180,51.560 156.000,52.000 156.000 C 52.440 156.000,52.800 155.820,52.800 155.600 C 52.800 155.380,53.790 155.200,55.000 155.200 C 56.210 155.200,57.200 155.020,57.200 154.800 C 57.200 154.537,66.200 154.400,83.400 154.400 C 100.600 154.400,109.600 154.537,109.600 154.800 M224.400 154.800 C 224.400 155.020,225.283 155.200,226.362 155.200 C 230.165 155.200,236.800 160.646,236.800 163.767 C 236.800 164.335,236.980 164.800,237.200 164.800 C 237.463 164.800,237.600 175.000,237.600 194.600 C 237.600 214.200,237.463 224.400,237.200 224.400 C 236.980 224.400,236.800 224.726,236.800 225.125 C 236.800 225.523,236.440 226.236,236.000 226.708 C 235.560 227.180,235.200 227.799,235.200 228.083 C 235.199 228.826,232.429 231.370,230.900 232.032 C 230.185 232.342,229.600 232.731,229.600 232.898 C 229.600 233.064,229.240 233.200,228.800 233.200 C 228.360 233.200,228.000 233.380,228.000 233.600 C 228.000 233.863,217.800 234.000,198.200 234.000 C 178.600 234.000,168.400 233.863,168.400 233.600 C 168.400 233.380,167.903 233.200,167.296 233.200 C 166.626 233.200,165.996 232.886,165.693 232.400 C 165.418 231.960,164.925 231.600,164.597 231.600 C 164.268 231.600,164.000 231.409,164.000 231.176 C 164.000 230.943,163.865 230.815,163.700 230.892 C 163.535 230.968,162.830 230.439,162.134 229.715 C 161.438 228.992,160.988 228.397,161.134 228.394 C 161.280 228.391,161.220 228.256,161.000 228.094 C 160.348 227.615,159.600 226.071,159.600 225.205 C 159.600 224.762,159.420 224.400,159.200 224.400 C 158.937 224.400,158.800 214.067,158.800 194.200 C 158.800 174.333,158.937 164.000,159.200 164.000 C 159.420 164.000,159.600 163.640,159.600 163.200 C 159.600 162.760,159.780 162.400,160.000 162.400 C 160.220 162.400,160.400 162.171,160.400 161.891 C 160.400 160.682,165.614 156.000,166.962 156.000 C 167.313 156.000,167.600 155.820,167.600 155.600 C 167.600 155.380,168.489 155.200,169.576 155.200 C 170.663 155.200,171.664 155.020,171.800 154.800 C 171.961 154.540,181.204 154.400,198.224 154.400 C 215.408 154.400,224.400 154.537,224.400 154.800 M338.600 154.800 C 338.736 155.020,339.837 155.200,341.047 155.200 C 342.412 155.200,343.153 155.352,343.000 155.600 C 342.864 155.820,343.123 156.000,343.576 156.000 C 344.029 156.000,344.400 156.180,344.400 156.400 C 344.400 156.620,344.741 156.800,345.157 156.800 C 345.574 156.800,346.018 157.070,346.145 157.400 C 346.271 157.730,346.663 158.000,347.016 158.000 C 347.771 158.000,348.800 158.937,348.800 159.625 C 348.800 159.889,349.134 160.397,349.543 160.753 C 350.264 161.381,351.040 163.092,350.879 163.700 C 350.836 163.865,350.980 164.000,351.200 164.000 C 351.420 164.000,351.600 164.810,351.600 165.800 C 351.600 166.790,351.780 167.600,352.000 167.600 C 352.263 167.600,352.400 176.867,352.400 194.600 C 352.400 212.333,352.263 221.600,352.000 221.600 C 351.780 221.600,351.600 222.511,351.600 223.624 C 351.600 225.054,351.464 225.563,351.137 225.361 C 350.821 225.166,350.744 225.344,350.896 225.924 C 351.028 226.429,350.940 226.738,350.678 226.686 C 350.435 226.639,350.229 226.897,350.219 227.260 C 350.195 228.105,345.856 232.400,345.026 232.400 C 344.682 232.400,344.400 232.580,344.400 232.800 C 344.400 233.020,343.860 233.200,343.200 233.200 C 342.540 233.200,342.000 233.380,342.000 233.600 C 342.000 233.863,331.800 234.000,312.200 234.000 C 295.810 234.000,282.400 233.854,282.400 233.675 C 282.400 233.496,281.770 233.102,281.000 232.800 C 280.230 232.498,279.600 232.104,279.600 231.925 C 279.600 231.746,279.240 231.600,278.800 231.600 C 278.360 231.600,278.000 231.409,278.000 231.176 C 278.000 230.943,277.792 230.881,277.538 231.038 C 277.278 231.199,277.184 231.149,277.322 230.925 C 277.458 230.706,277.036 230.133,276.384 229.652 C 275.733 229.170,275.200 228.421,275.200 227.988 C 275.200 227.555,275.020 227.200,274.800 227.200 C 274.580 227.200,274.400 226.930,274.400 226.600 C 274.400 226.270,274.199 226.000,273.953 226.000 C 273.693 226.000,273.586 225.584,273.698 225.000 C 273.803 224.450,273.731 224.000,273.537 224.000 C 273.030 224.000,273.292 163.648,273.801 163.285 C 274.021 163.128,274.460 162.460,274.776 161.800 C 275.093 161.140,275.882 160.105,276.530 159.500 C 277.178 158.895,277.587 158.400,277.438 158.400 C 277.290 158.400,277.401 158.149,277.684 157.842 C 277.968 157.535,278.335 157.366,278.500 157.466 C 278.665 157.565,278.800 157.457,278.800 157.224 C 278.800 156.991,279.160 156.800,279.600 156.800 C 280.040 156.800,280.400 156.620,280.400 156.400 C 280.400 156.180,280.749 156.000,281.176 156.000 C 281.603 156.000,282.064 155.820,282.200 155.600 C 282.336 155.380,283.247 155.200,284.224 155.200 C 285.201 155.200,286.000 155.020,286.000 154.800 C 286.000 154.537,294.992 154.400,312.176 154.400 C 329.196 154.400,338.439 154.540,338.600 154.800 M52.200 260.400 C 52.064 260.620,51.333 260.800,50.576 260.800 C 49.819 260.800,49.200 260.980,49.200 261.200 C 49.200 261.420,48.660 261.600,48.000 261.600 C 47.340 261.600,46.800 261.760,46.800 261.957 C 46.800 262.153,46.350 262.426,45.800 262.564 C 45.250 262.702,44.800 262.992,44.800 263.208 C 44.800 263.423,44.485 263.601,44.100 263.601 C 43.715 263.602,43.040 264.141,42.600 264.800 C 42.160 265.459,41.485 265.998,41.100 265.999 C 40.715 265.999,40.400 266.204,40.400 266.453 C 40.400 266.702,40.012 267.242,39.539 267.653 C 39.065 268.064,38.835 268.400,39.028 268.400 C 39.220 268.400,38.978 268.680,38.489 269.023 C 38.000 269.365,37.600 269.905,37.600 270.223 C 37.600 270.540,37.420 270.800,37.200 270.800 C 36.980 270.800,36.800 271.160,36.800 271.600 C 36.800 272.040,36.620 272.400,36.400 272.400 C 36.180 272.400,36.000 272.672,36.000 273.005 C 36.000 273.338,35.820 273.968,35.600 274.405 C 35.380 274.842,35.020 275.558,34.800 275.995 C 34.250 277.087,34.250 341.060,34.800 341.400 C 35.020 341.536,35.200 342.087,35.200 342.624 C 35.200 343.161,35.380 343.600,35.600 343.600 C 35.820 343.600,36.000 344.050,36.000 344.600 C 36.000 345.150,36.180 345.600,36.400 345.600 C 36.620 345.600,36.800 345.917,36.800 346.304 C 36.800 346.691,37.167 347.237,37.615 347.516 C 38.063 347.796,38.378 348.256,38.315 348.537 C 38.165 349.205,42.795 353.835,43.463 353.685 C 43.744 353.622,44.204 353.937,44.484 354.385 C 44.763 354.833,45.309 355.200,45.696 355.200 C 46.083 355.200,46.400 355.380,46.400 355.600 C 46.400 355.820,46.850 356.000,47.400 356.000 C 47.950 356.000,48.400 356.180,48.400 356.400 C 48.400 356.620,48.839 356.800,49.376 356.800 C 49.913 356.800,50.464 356.980,50.600 357.200 C 50.761 357.461,62.006 357.600,83.029 357.600 C 103.687 357.600,115.495 357.457,116.005 357.200 C 116.442 356.980,117.158 356.620,117.595 356.400 C 118.032 356.180,118.662 356.000,118.995 356.000 C 119.328 356.000,119.600 355.820,119.600 355.600 C 119.600 355.380,119.960 355.200,120.400 355.200 C 120.840 355.200,121.200 355.020,121.200 354.800 C 121.200 354.580,121.460 354.400,121.777 354.400 C 122.095 354.400,122.635 354.000,122.977 353.511 C 123.320 353.022,123.600 352.780,123.600 352.972 C 123.600 353.165,123.936 352.935,124.347 352.461 C 124.758 351.988,125.298 351.600,125.547 351.600 C 125.796 351.600,126.001 351.285,126.001 350.900 C 126.002 350.515,126.541 349.840,127.200 349.400 C 127.859 348.960,128.398 348.285,128.399 347.900 C 128.399 347.515,128.577 347.200,128.792 347.200 C 129.008 347.200,129.298 346.750,129.436 346.200 C 129.574 345.650,129.847 345.200,130.043 345.200 C 130.240 345.200,130.400 344.660,130.400 344.000 C 130.400 343.340,130.580 342.800,130.800 342.800 C 131.020 342.800,131.200 342.181,131.200 341.424 C 131.200 340.667,131.380 339.936,131.600 339.800 C 131.861 339.639,132.000 328.870,132.000 308.800 C 132.000 288.730,131.861 277.961,131.600 277.800 C 131.380 277.664,131.200 277.021,131.200 276.371 C 131.200 275.213,130.546 273.651,129.849 273.145 C 129.656 273.004,129.621 272.689,129.772 272.445 C 129.924 272.200,129.857 272.000,129.624 272.000 C 129.391 272.000,129.200 271.764,129.200 271.475 C 129.200 271.187,128.840 270.564,128.400 270.092 C 127.960 269.620,127.600 269.054,127.600 268.836 C 127.600 268.318,123.682 264.400,123.164 264.400 C 122.946 264.400,122.380 264.040,121.908 263.600 C 121.436 263.160,120.813 262.800,120.525 262.800 C 120.236 262.800,120.000 262.609,120.000 262.376 C 120.000 262.143,119.800 262.076,119.555 262.228 C 119.311 262.379,118.996 262.344,118.855 262.151 C 118.349 261.454,116.787 260.800,115.629 260.800 C 114.979 260.800,114.336 260.620,114.200 260.400 C 114.039 260.139,103.270 260.000,83.200 260.000 C 63.130 260.000,52.361 260.139,52.200 260.400 M167.000 260.400 C 167.147 260.638,166.679 260.800,165.847 260.800 C 165.077 260.800,164.336 260.980,164.200 261.200 C 164.064 261.420,163.528 261.600,163.010 261.600 C 162.491 261.600,162.007 261.735,161.933 261.900 C 161.860 262.065,161.082 262.560,160.206 263.000 C 156.114 265.053,150.400 272.360,150.400 275.540 C 150.400 276.233,150.220 276.800,150.000 276.800 C 149.737 276.800,149.600 287.875,149.600 309.224 C 149.600 327.575,149.751 341.554,149.949 341.432 C 150.141 341.313,150.402 341.856,150.529 342.638 C 150.801 344.318,151.669 346.400,152.098 346.400 C 152.264 346.400,152.400 346.717,152.400 347.104 C 152.400 347.491,152.760 348.032,153.200 348.307 C 153.640 348.582,154.000 349.075,154.000 349.403 C 154.000 349.732,154.210 350.000,154.467 350.000 C 154.723 350.000,154.827 350.106,154.697 350.236 C 154.360 350.573,157.152 353.200,157.847 353.200 C 158.165 353.200,158.529 353.470,158.655 353.800 C 158.782 354.130,159.226 354.400,159.643 354.400 C 160.059 354.400,160.400 354.580,160.400 354.800 C 160.400 355.020,160.726 355.200,161.125 355.200 C 161.523 355.200,162.236 355.560,162.708 356.000 C 163.180 356.440,164.024 356.800,164.583 356.800 C 165.142 356.800,165.600 356.982,165.600 357.204 C 165.600 357.750,230.686 357.740,230.870 357.194 C 230.941 356.981,231.495 356.766,232.100 356.716 C 232.705 356.666,233.200 356.518,233.200 356.387 C 233.200 356.036,236.378 354.400,237.061 354.400 C 237.384 354.400,237.544 354.233,237.418 354.029 C 237.292 353.825,237.554 353.542,238.000 353.400 C 238.446 353.258,238.708 352.975,238.582 352.771 C 238.456 352.567,238.715 352.400,239.158 352.400 C 240.296 352.400,242.034 350.566,241.722 349.696 C 241.585 349.313,241.618 349.132,241.796 349.293 C 242.122 349.589,243.999 347.689,244.000 347.062 C 244.000 346.876,244.343 346.242,244.762 345.654 C 245.181 345.065,245.651 343.730,245.808 342.687 C 245.964 341.644,246.252 340.692,246.446 340.571 C 246.956 340.256,246.910 277.600,246.400 277.600 C 246.180 277.600,246.000 276.869,246.000 275.976 C 246.000 275.056,245.836 274.454,245.621 274.587 C 245.412 274.716,245.312 274.457,245.398 274.011 C 245.484 273.565,245.384 273.200,245.177 273.200 C 244.970 273.200,244.800 272.840,244.800 272.400 C 244.800 271.960,244.620 271.600,244.400 271.600 C 244.180 271.600,244.000 271.330,244.000 271.000 C 244.000 270.670,243.820 270.400,243.600 270.400 C 243.380 270.400,243.200 270.139,243.200 269.819 C 243.200 269.060,237.704 263.600,236.940 263.600 C 236.617 263.600,236.464 263.420,236.600 263.200 C 236.736 262.980,236.507 262.800,236.090 262.800 C 235.674 262.800,235.198 262.665,235.033 262.500 C 234.868 262.335,234.613 262.176,234.467 262.146 C 233.404 261.932,232.400 261.449,232.400 261.153 C 232.400 260.959,231.781 260.800,231.024 260.800 C 230.267 260.800,229.536 260.620,229.400 260.400 C 229.239 260.139,218.321 260.000,197.953 260.000 C 177.255 260.000,166.836 260.135,167.000 260.400 M281.200 260.400 C 281.200 260.620,280.696 260.800,280.080 260.800 C 278.902 260.800,276.808 261.610,276.803 262.068 C 276.801 262.216,276.215 262.465,275.500 262.622 C 274.786 262.779,273.909 263.243,273.553 263.654 C 273.197 264.064,272.612 264.400,272.253 264.400 C 271.894 264.400,271.600 264.681,271.600 265.024 C 271.600 265.367,271.433 265.544,271.229 265.418 C 271.025 265.292,270.738 265.565,270.592 266.024 C 270.446 266.484,270.227 266.760,270.104 266.637 C 269.813 266.346,268.001 268.455,268.000 269.086 C 268.000 269.353,267.661 269.753,267.247 269.975 C 266.832 270.197,266.374 271.013,266.228 271.789 C 266.083 272.565,265.837 273.201,265.682 273.203 C 265.213 273.208,264.400 275.286,264.400 276.480 C 264.400 277.096,264.220 277.600,264.000 277.600 C 263.737 277.600,263.600 288.192,263.600 308.576 C 263.600 328.796,263.739 339.639,264.000 339.800 C 264.220 339.936,264.400 340.652,264.400 341.390 C 264.400 342.129,264.578 342.793,264.797 342.867 C 265.015 342.940,265.234 343.495,265.284 344.100 C 265.334 344.705,265.515 345.200,265.687 345.200 C 265.859 345.200,266.000 345.448,266.000 345.751 C 266.000 346.054,266.270 346.526,266.600 346.800 C 266.930 347.074,267.201 347.591,267.201 347.949 C 267.202 348.307,267.741 348.960,268.400 349.400 C 269.059 349.840,269.598 350.515,269.599 350.900 C 269.599 351.285,269.825 351.601,270.100 351.602 C 270.375 351.603,271.237 352.188,272.016 352.902 C 272.794 353.616,274.684 354.804,276.216 355.542 C 277.747 356.280,279.313 357.045,279.695 357.242 C 280.686 357.753,344.684 357.712,345.000 357.200 C 345.136 356.980,345.687 356.800,346.224 356.800 C 346.761 356.800,347.200 356.620,347.200 356.400 C 347.200 356.180,347.648 356.000,348.197 356.000 C 348.760 356.000,349.410 355.652,349.693 355.200 C 349.968 354.760,350.509 354.400,350.896 354.400 C 351.283 354.400,351.600 354.220,351.600 354.000 C 351.600 353.780,351.833 353.600,352.119 353.600 C 353.001 353.600,357.454 349.067,357.752 347.866 C 357.906 347.242,358.385 346.353,358.816 345.890 C 359.247 345.428,359.600 344.723,359.600 344.325 C 359.600 343.926,359.780 343.600,360.000 343.600 C 360.220 343.600,360.400 343.161,360.400 342.624 C 360.400 342.087,360.582 341.535,360.804 341.397 C 361.353 341.058,361.339 276.000,360.791 276.000 C 360.576 276.000,360.400 275.651,360.400 275.224 C 360.400 274.797,360.220 274.336,360.000 274.200 C 359.780 274.064,359.600 273.681,359.600 273.348 C 359.600 273.015,359.328 272.471,358.996 272.139 C 358.664 271.807,358.495 271.370,358.620 271.168 C 358.745 270.965,358.657 270.800,358.424 270.800 C 358.191 270.800,358.000 270.568,358.000 270.283 C 358.000 269.999,357.370 269.099,356.600 268.282 C 355.830 267.466,355.200 266.619,355.200 266.399 C 355.200 266.180,354.994 266.000,354.743 266.000 C 354.492 266.000,353.771 265.460,353.140 264.800 C 352.509 264.140,351.605 263.600,351.130 263.600 C 350.655 263.600,350.392 263.475,350.545 263.321 C 350.885 262.982,348.143 261.600,347.129 261.600 C 346.728 261.600,346.400 261.420,346.400 261.200 C 346.400 260.980,345.770 260.800,345.000 260.800 C 344.230 260.800,343.600 260.620,343.600 260.400 C 343.600 260.137,332.933 260.000,312.400 260.000 C 291.867 260.000,281.200 260.137,281.200 260.400 M114.724 269.917 C 114.792 269.963,114.736 270.180,114.600 270.400 C 114.464 270.620,114.684 270.800,115.088 270.800 C 115.493 270.800,116.083 271.160,116.400 271.600 C 116.717 272.040,117.238 272.400,117.557 272.400 C 118.365 272.400,119.600 273.593,119.600 274.374 C 119.600 274.731,119.960 275.283,120.400 275.600 C 120.840 275.917,121.200 276.507,121.200 276.912 C 121.200 277.316,121.380 277.536,121.600 277.400 C 121.820 277.264,122.037 277.208,122.083 277.276 C 122.334 277.651,122.550 338.693,122.300 338.538 C 122.135 338.436,122.000 338.723,122.000 339.176 C 122.000 339.629,121.820 340.000,121.600 340.000 C 121.380 340.000,121.200 340.360,121.200 340.800 C 121.200 341.240,121.020 341.600,120.800 341.600 C 120.580 341.600,120.400 341.832,120.400 342.115 C 120.400 342.799,116.980 346.398,116.319 346.409 C 116.034 346.414,115.350 346.770,114.800 347.200 C 114.171 347.692,113.168 347.986,112.100 347.991 C 111.165 347.996,110.400 348.180,110.400 348.400 C 110.400 348.663,101.000 348.800,83.000 348.800 C 65.000 348.800,55.600 348.663,55.600 348.400 C 55.600 348.180,54.970 348.000,54.200 348.000 C 53.430 348.000,52.800 347.820,52.800 347.600 C 52.800 347.380,52.451 347.200,52.024 347.200 C 51.597 347.200,51.128 347.008,50.983 346.773 C 50.838 346.538,50.477 346.439,50.180 346.552 C 49.875 346.669,49.533 346.418,49.392 345.974 C 49.255 345.542,48.987 345.284,48.797 345.402 C 48.346 345.680,46.320 343.654,46.598 343.203 C 46.716 343.013,46.458 342.745,46.026 342.608 C 45.582 342.467,45.331 342.125,45.448 341.820 C 45.561 341.523,45.462 341.162,45.227 341.017 C 44.992 340.872,44.800 340.403,44.800 339.976 C 44.800 339.549,44.620 339.200,44.400 339.200 C 44.180 339.200,44.000 338.570,44.000 337.800 C 44.000 337.030,43.820 336.400,43.600 336.400 C 43.337 336.400,43.200 327.000,43.200 309.000 C 43.200 291.000,43.337 281.600,43.600 281.600 C 43.820 281.600,44.004 280.835,44.009 279.900 C 44.014 278.832,44.308 277.829,44.800 277.200 C 45.230 276.650,45.586 275.966,45.591 275.681 C 45.602 275.020,49.201 271.600,49.885 271.600 C 50.168 271.600,50.400 271.420,50.400 271.200 C 50.400 270.980,50.760 270.800,51.200 270.800 C 51.640 270.800,52.000 270.620,52.000 270.400 C 52.000 270.180,52.371 270.000,52.824 270.000 C 53.277 270.000,53.564 269.865,53.462 269.700 C 53.307 269.450,114.349 269.666,114.724 269.917 M343.033 270.000 C 343.345 270.000,343.600 270.180,343.600 270.400 C 343.600 270.620,343.960 270.800,344.400 270.800 C 344.840 270.800,345.200 270.936,345.200 271.102 C 345.200 271.269,345.741 271.644,346.402 271.937 C 347.064 272.230,347.503 272.634,347.379 272.835 C 347.254 273.036,347.324 273.200,347.534 273.200 C 348.333 273.200,350.416 275.580,350.653 276.763 C 350.789 277.443,351.039 278.000,351.210 278.000 C 351.932 278.000,352.109 283.246,352.256 309.100 C 352.360 327.380,352.277 336.400,352.005 336.400 C 351.782 336.400,351.600 337.131,351.600 338.024 C 351.600 339.004,351.442 339.549,351.200 339.400 C 350.980 339.264,350.800 339.513,350.800 339.953 C 350.800 340.393,350.617 340.866,350.393 341.004 C 350.170 341.142,350.087 341.417,350.209 341.615 C 350.331 341.812,350.064 342.203,349.616 342.483 C 349.167 342.763,348.800 343.232,348.800 343.525 C 348.800 344.260,347.792 345.200,347.005 345.200 C 346.646 345.200,346.445 345.349,346.558 345.531 C 346.765 345.867,343.653 347.447,343.100 347.287 C 342.935 347.239,342.800 347.380,342.800 347.600 C 342.800 347.820,342.271 348.000,341.624 348.000 C 340.977 348.000,340.336 348.180,340.200 348.400 C 340.039 348.660,330.470 348.800,312.800 348.800 C 295.130 348.800,285.561 348.660,285.400 348.400 C 285.264 348.180,284.426 348.000,283.538 348.000 C 282.607 348.000,281.474 347.684,280.862 347.252 C 280.278 346.841,279.395 346.379,278.900 346.226 C 278.405 346.072,277.997 345.823,277.994 345.673 C 277.981 345.147,275.710 342.823,275.456 343.077 C 275.315 343.218,275.200 342.943,275.200 342.467 C 275.200 341.990,275.041 341.600,274.847 341.600 C 274.489 341.600,273.936 340.302,273.824 339.200 C 273.790 338.870,273.591 338.630,273.381 338.667 C 273.065 338.722,273.198 277.736,273.515 277.276 C 273.562 277.208,273.780 277.264,274.000 277.400 C 274.220 277.536,274.400 277.299,274.400 276.873 C 274.400 276.447,274.689 275.858,275.042 275.565 C 275.395 275.273,275.824 274.662,275.997 274.208 C 276.169 273.754,276.826 273.117,277.455 272.792 C 278.085 272.466,279.017 271.792,279.526 271.292 C 280.035 270.793,280.605 270.479,280.792 270.595 C 280.979 270.710,281.207 270.579,281.299 270.302 C 281.487 269.737,342.084 269.139,342.333 269.700 C 342.407 269.865,342.722 270.000,343.033 270.000 M229.515 270.232 C 229.672 270.470,230.385 270.919,231.100 271.230 C 231.815 271.541,232.400 271.931,232.400 272.098 C 232.400 272.264,232.681 272.400,233.024 272.400 C 233.367 272.400,233.544 272.567,233.418 272.771 C 233.292 272.975,233.554 273.258,234.000 273.400 C 234.446 273.542,234.708 273.825,234.582 274.029 C 234.456 274.233,234.543 274.400,234.776 274.400 C 235.009 274.400,235.200 274.760,235.200 275.200 C 235.200 275.640,235.346 276.000,235.525 276.000 C 235.704 276.000,236.098 276.630,236.400 277.400 C 236.702 278.170,237.096 278.800,237.275 278.800 C 237.763 278.800,237.689 338.298,237.200 338.600 C 236.980 338.736,236.800 339.176,236.800 339.578 C 236.800 341.013,232.481 346.400,231.330 346.400 C 230.711 346.400,228.806 347.380,228.803 347.700 C 228.801 347.865,227.990 348.000,227.000 348.000 C 226.010 348.000,225.200 348.180,225.200 348.400 C 225.200 348.663,215.808 348.800,197.824 348.800 C 180.004 348.800,170.361 348.660,170.200 348.400 C 170.064 348.180,169.423 348.000,168.776 348.000 C 168.129 348.000,167.600 347.820,167.600 347.600 C 167.600 347.380,167.240 347.200,166.800 347.200 C 166.360 347.200,166.000 347.020,166.000 346.800 C 166.000 346.580,165.634 346.400,165.187 346.400 C 164.741 346.400,164.271 346.130,164.145 345.800 C 164.018 345.470,163.651 345.200,163.329 345.200 C 162.670 345.200,161.600 344.257,161.600 343.678 C 161.600 343.469,161.330 343.074,161.000 342.800 C 160.670 342.526,160.400 341.964,160.400 341.551 C 160.400 341.138,160.220 340.800,160.000 340.800 C 159.780 340.800,159.600 340.440,159.600 340.000 C 159.600 339.560,159.420 339.200,159.200 339.200 C 158.937 339.200,158.800 328.867,158.800 309.000 C 158.800 289.133,158.937 278.800,159.200 278.800 C 159.420 278.800,159.600 278.350,159.600 277.800 C 159.600 277.250,159.780 276.800,160.000 276.800 C 160.220 276.800,160.400 276.514,160.400 276.163 C 160.400 275.285,163.914 271.837,165.500 271.160 C 166.215 270.855,166.800 270.482,166.800 270.332 C 166.800 269.522,228.981 269.424,229.515 270.232 " stroke="none" fill="#ecdcb4" fill-rule="evenodd"></path><path id="path1" d="M38.500 38.598 C 38.225 38.911,38.014 39.489,38.032 39.883 C 38.056 40.441,38.112 40.467,38.284 40.000 C 38.405 39.670,38.779 39.085,39.114 38.700 C 39.450 38.315,39.561 38.007,39.362 38.015 C 39.163 38.024,38.775 38.286,38.500 38.598 M150.101 113.000 C 150.105 113.880,150.187 114.193,150.283 113.695 C 150.379 113.198,150.375 112.478,150.275 112.095 C 150.175 111.713,150.096 112.120,150.101 113.000 M112.400 118.331 C 112.400 118.513,112.940 118.582,113.600 118.485 C 114.260 118.388,114.800 118.240,114.800 118.155 C 114.800 118.070,114.260 118.000,113.600 118.000 C 112.940 118.000,112.400 118.149,112.400 118.331 M227.200 118.331 C 227.200 118.513,227.740 118.582,228.400 118.485 C 229.060 118.388,229.600 118.240,229.600 118.155 C 229.600 118.070,229.060 118.000,228.400 118.000 C 227.740 118.000,227.200 118.149,227.200 118.331 M241.002 121.198 C 240.603 121.639,240.407 122.000,240.567 122.000 C 240.988 122.000,242.128 120.795,241.912 120.579 C 241.811 120.478,241.402 120.756,241.002 121.198 M150.093 227.600 C 150.093 228.370,150.175 228.685,150.276 228.300 C 150.376 227.915,150.376 227.285,150.276 226.900 C 150.175 226.515,150.093 226.830,150.093 227.600 M46.800 241.669 C 46.800 241.851,47.340 242.000,48.000 242.000 C 48.660 242.000,49.200 241.930,49.200 241.845 C 49.200 241.760,48.660 241.612,48.000 241.515 C 47.340 241.418,46.800 241.487,46.800 241.669 M347.400 241.600 L 346.200 241.905 347.500 241.953 C 348.215 241.979,348.800 241.820,348.800 241.600 C 348.800 241.380,348.755 241.221,348.700 241.247 C 348.645 241.273,348.060 241.432,347.400 241.600 M162.000 241.755 C 162.000 241.840,162.530 241.987,163.179 242.082 C 163.827 242.177,164.267 242.108,164.155 241.928 C 163.957 241.607,162.000 241.450,162.000 241.755 M118.000 272.567 C 118.000 272.988,119.205 274.128,119.421 273.912 C 119.522 273.811,119.244 273.402,118.802 273.002 C 118.361 272.603,118.000 272.407,118.000 272.567 M150.101 275.400 C 150.105 276.280,150.187 276.593,150.283 276.095 C 150.379 275.598,150.375 274.878,150.275 274.495 C 150.175 274.113,150.096 274.520,150.101 275.400 M273.515 278.400 C 273.418 279.060,273.487 279.600,273.669 279.600 C 273.851 279.600,274.000 279.060,274.000 278.400 C 274.000 277.740,273.930 277.200,273.845 277.200 C 273.760 277.200,273.612 277.740,273.515 278.400 M150.000 342.400 C 150.000 343.060,150.149 343.600,150.331 343.600 C 150.513 343.600,150.582 343.060,150.485 342.400 C 150.388 341.740,150.240 341.200,150.155 341.200 C 150.070 341.200,150.000 341.740,150.000 342.400 M160.886 342.700 C 161.221 343.085,161.595 343.670,161.716 344.000 C 161.886 344.461,161.944 344.431,161.968 343.871 C 161.986 343.471,161.743 342.886,161.429 342.571 C 160.612 341.755,160.157 341.863,160.886 342.700 M353.399 352.801 C 353.245 353.051,352.732 353.412,352.259 353.603 C 351.533 353.896,351.513 353.953,352.129 353.975 C 352.894 354.001,354.244 352.911,353.888 352.554 C 353.774 352.440,353.554 352.551,353.399 352.801 " stroke="none" fill="#f0dcb4" fill-rule="evenodd"></path><path id="path2" d="M38.500 38.598 C 38.225 38.911,38.014 39.489,38.032 39.883 C 38.056 40.441,38.112 40.467,38.284 40.000 C 38.405 39.670,38.779 39.085,39.114 38.700 C 39.450 38.315,39.561 38.007,39.362 38.015 C 39.163 38.024,38.775 38.286,38.500 38.598 M150.101 113.000 C 150.105 113.880,150.187 114.193,150.283 113.695 C 150.379 113.198,150.375 112.478,150.275 112.095 C 150.175 111.713,150.096 112.120,150.101 113.000 M112.400 118.331 C 112.400 118.513,112.940 118.582,113.600 118.485 C 114.260 118.388,114.800 118.240,114.800 118.155 C 114.800 118.070,114.260 118.000,113.600 118.000 C 112.940 118.000,112.400 118.149,112.400 118.331 M227.200 118.331 C 227.200 118.513,227.740 118.582,228.400 118.485 C 229.060 118.388,229.600 118.240,229.600 118.155 C 229.600 118.070,229.060 118.000,228.400 118.000 C 227.740 118.000,227.200 118.149,227.200 118.331 M241.002 121.198 C 240.603 121.639,240.407 122.000,240.567 122.000 C 240.988 122.000,242.128 120.795,241.912 120.579 C 241.811 120.478,241.402 120.756,241.002 121.198 M150.093 227.600 C 150.093 228.370,150.175 228.685,150.276 228.300 C 150.376 227.915,150.376 227.285,150.276 226.900 C 150.175 226.515,150.093 226.830,150.093 227.600 M46.800 241.669 C 46.800 241.851,47.340 242.000,48.000 242.000 C 48.660 242.000,49.200 241.930,49.200 241.845 C 49.200 241.760,48.660 241.612,48.000 241.515 C 47.340 241.418,46.800 241.487,46.800 241.669 M347.400 241.600 L 346.200 241.905 347.500 241.953 C 348.215 241.979,348.800 241.820,348.800 241.600 C 348.800 241.380,348.755 241.221,348.700 241.247 C 348.645 241.273,348.060 241.432,347.400 241.600 M162.000 241.755 C 162.000 241.840,162.530 241.987,163.179 242.082 C 163.827 242.177,164.267 242.108,164.155 241.928 C 163.957 241.607,162.000 241.450,162.000 241.755 M118.000 272.567 C 118.000 272.988,119.205 274.128,119.421 273.912 C 119.522 273.811,119.244 273.402,118.802 273.002 C 118.361 272.603,118.000 272.407,118.000 272.567 M150.101 275.400 C 150.105 276.280,150.187 276.593,150.283 276.095 C 150.379 275.598,150.375 274.878,150.275 274.495 C 150.175 274.113,150.096 274.520,150.101 275.400 M273.515 278.400 C 273.418 279.060,273.487 279.600,273.669 279.600 C 273.851 279.600,274.000 279.060,274.000 278.400 C 274.000 277.740,273.930 277.200,273.845 277.200 C 273.760 277.200,273.612 277.740,273.515 278.400 M150.000 342.400 C 150.000 343.060,150.149 343.600,150.331 343.600 C 150.513 343.600,150.582 343.060,150.485 342.400 C 150.388 341.740,150.240 341.200,150.155 341.200 C 150.070 341.200,150.000 341.740,150.000 342.400 M160.886 342.700 C 161.221 343.085,161.595 343.670,161.716 344.000 C 161.886 344.461,161.944 344.431,161.968 343.871 C 161.986 343.471,161.743 342.886,161.429 342.571 C 160.612 341.755,160.157 341.863,160.886 342.700 M353.399 352.801 C 353.245 353.051,352.732 353.412,352.259 353.603 C 351.533 353.896,351.513 353.953,352.129 353.975 C 352.894 354.001,354.244 352.911,353.888 352.554 C 353.774 352.440,353.554 352.551,353.399 352.801 " stroke="none" fill="#f0dcb4" fill-rule="evenodd"></path><path id="path3" d="M38.500 38.598 C 38.225 38.911,38.014 39.489,38.032 39.883 C 38.056 40.441,38.112 40.467,38.284 40.000 C 38.405 39.670,38.779 39.085,39.114 38.700 C 39.450 38.315,39.561 38.007,39.362 38.015 C 39.163 38.024,38.775 38.286,38.500 38.598 M150.101 113.000 C 150.105 113.880,150.187 114.193,150.283 113.695 C 150.379 113.198,150.375 112.478,150.275 112.095 C 150.175 111.713,150.096 112.120,150.101 113.000 M112.400 118.331 C 112.400 118.513,112.940 118.582,113.600 118.485 C 114.260 118.388,114.800 118.240,114.800 118.155 C 114.800 118.070,114.260 118.000,113.600 118.000 C 112.940 118.000,112.400 118.149,112.400 118.331 M227.200 118.331 C 227.200 118.513,227.740 118.582,228.400 118.485 C 229.060 118.388,229.600 118.240,229.600 118.155 C 229.600 118.070,229.060 118.000,228.400 118.000 C 227.740 118.000,227.200 118.149,227.200 118.331 M241.002 121.198 C 240.603 121.639,240.407 122.000,240.567 122.000 C 240.988 122.000,242.128 120.795,241.912 120.579 C 241.811 120.478,241.402 120.756,241.002 121.198 M150.093 227.600 C 150.093 228.370,150.175 228.685,150.276 228.300 C 150.376 227.915,150.376 227.285,150.276 226.900 C 150.175 226.515,150.093 226.830,150.093 227.600 M46.800 241.669 C 46.800 241.851,47.340 242.000,48.000 242.000 C 48.660 242.000,49.200 241.930,49.200 241.845 C 49.200 241.760,48.660 241.612,48.000 241.515 C 47.340 241.418,46.800 241.487,46.800 241.669 M347.400 241.600 L 346.200 241.905 347.500 241.953 C 348.215 241.979,348.800 241.820,348.800 241.600 C 348.800 241.380,348.755 241.221,348.700 241.247 C 348.645 241.273,348.060 241.432,347.400 241.600 M162.000 241.755 C 162.000 241.840,162.530 241.987,163.179 242.082 C 163.827 242.177,164.267 242.108,164.155 241.928 C 163.957 241.607,162.000 241.450,162.000 241.755 M118.000 272.567 C 118.000 272.988,119.205 274.128,119.421 273.912 C 119.522 273.811,119.244 273.402,118.802 273.002 C 118.361 272.603,118.000 272.407,118.000 272.567 M150.101 275.400 C 150.105 276.280,150.187 276.593,150.283 276.095 C 150.379 275.598,150.375 274.878,150.275 274.495 C 150.175 274.113,150.096 274.520,150.101 275.400 M273.515 278.400 C 273.418 279.060,273.487 279.600,273.669 279.600 C 273.851 279.600,274.000 279.060,274.000 278.400 C 274.000 277.740,273.930 277.200,273.845 277.200 C 273.760 277.200,273.612 277.740,273.515 278.400 M150.000 342.400 C 150.000 343.060,150.149 343.600,150.331 343.600 C 150.513 343.600,150.582 343.060,150.485 342.400 C 150.388 341.740,150.240 341.200,150.155 341.200 C 150.070 341.200,150.000 341.740,150.000 342.400 M160.886 342.700 C 161.221 343.085,161.595 343.670,161.716 344.000 C 161.886 344.461,161.944 344.431,161.968 343.871 C 161.986 343.471,161.743 342.886,161.429 342.571 C 160.612 341.755,160.157 341.863,160.886 342.700 M353.399 352.801 C 353.245 353.051,352.732 353.412,352.259 353.603 C 351.533 353.896,351.513 353.953,352.129 353.975 C 352.894 354.001,354.244 352.911,353.888 352.554 C 353.774 352.440,353.554 352.551,353.399 352.801 " stroke="none" fill="#f0dcb4" fill-rule="evenodd"></path><path id="path4" d="M38.500 38.598 C 38.225 38.911,38.014 39.489,38.032 39.883 C 38.056 40.441,38.112 40.467,38.284 40.000 C 38.405 39.670,38.779 39.085,39.114 38.700 C 39.450 38.315,39.561 38.007,39.362 38.015 C 39.163 38.024,38.775 38.286,38.500 38.598 M150.101 113.000 C 150.105 113.880,150.187 114.193,150.283 113.695 C 150.379 113.198,150.375 112.478,150.275 112.095 C 150.175 111.713,150.096 112.120,150.101 113.000 M112.400 118.331 C 112.400 118.513,112.940 118.582,113.600 118.485 C 114.260 118.388,114.800 118.240,114.800 118.155 C 114.800 118.070,114.260 118.000,113.600 118.000 C 112.940 118.000,112.400 118.149,112.400 118.331 M227.200 118.331 C 227.200 118.513,227.740 118.582,228.400 118.485 C 229.060 118.388,229.600 118.240,229.600 118.155 C 229.600 118.070,229.060 118.000,228.400 118.000 C 227.740 118.000,227.200 118.149,227.200 118.331 M241.002 121.198 C 240.603 121.639,240.407 122.000,240.567 122.000 C 240.988 122.000,242.128 120.795,241.912 120.579 C 241.811 120.478,241.402 120.756,241.002 121.198 M150.093 227.600 C 150.093 228.370,150.175 228.685,150.276 228.300 C 150.376 227.915,150.376 227.285,150.276 226.900 C 150.175 226.515,150.093 226.830,150.093 227.600 M46.800 241.669 C 46.800 241.851,47.340 242.000,48.000 242.000 C 48.660 242.000,49.200 241.930,49.200 241.845 C 49.200 241.760,48.660 241.612,48.000 241.515 C 47.340 241.418,46.800 241.487,46.800 241.669 M347.400 241.600 L 346.200 241.905 347.500 241.953 C 348.215 241.979,348.800 241.820,348.800 241.600 C 348.800 241.380,348.755 241.221,348.700 241.247 C 348.645 241.273,348.060 241.432,347.400 241.600 M162.000 241.755 C 162.000 241.840,162.530 241.987,163.179 242.082 C 163.827 242.177,164.267 242.108,164.155 241.928 C 163.957 241.607,162.000 241.450,162.000 241.755 M118.000 272.567 C 118.000 272.988,119.205 274.128,119.421 273.912 C 119.522 273.811,119.244 273.402,118.802 273.002 C 118.361 272.603,118.000 272.407,118.000 272.567 M150.101 275.400 C 150.105 276.280,150.187 276.593,150.283 276.095 C 150.379 275.598,150.375 274.878,150.275 274.495 C 150.175 274.113,150.096 274.520,150.101 275.400 M273.515 278.400 C 273.418 279.060,273.487 279.600,273.669 279.600 C 273.851 279.600,274.000 279.060,274.000 278.400 C 274.000 277.740,273.930 277.200,273.845 277.200 C 273.760 277.200,273.612 277.740,273.515 278.400 M150.000 342.400 C 150.000 343.060,150.149 343.600,150.331 343.600 C 150.513 343.600,150.582 343.060,150.485 342.400 C 150.388 341.740,150.240 341.200,150.155 341.200 C 150.070 341.200,150.000 341.740,150.000 342.400 M160.886 342.700 C 161.221 343.085,161.595 343.670,161.716 344.000 C 161.886 344.461,161.944 344.431,161.968 343.871 C 161.986 343.471,161.743 342.886,161.429 342.571 C 160.612 341.755,160.157 341.863,160.886 342.700 M353.399 352.801 C 353.245 353.051,352.732 353.412,352.259 353.603 C 351.533 353.896,351.513 353.953,352.129 353.975 C 352.894 354.001,354.244 352.911,353.888 352.554 C 353.774 352.440,353.554 352.551,353.399 352.801 " stroke="none" fill="#f0dcb4" fill-rule="evenodd"></path></g></svg>