<?xml version="1.0" encoding="UTF-8"?>
<!DOCTYPE svg PUBLIC "-//W3C//DTD SVG 1.1//EN" "http://www.w3.org/Graphics/SVG/1.1/DTD/svg11.dtd">
<svg xmlns="http://www.w3.org/2000/svg" version="1.1" width="580px" height="580px" style="shape-rendering:geometricPrecision; text-rendering:geometricPrecision; image-rendering:optimizeQuality; fill-rule:evenodd; clip-rule:evenodd" xmlns:xlink="http://www.w3.org/1999/xlink">
<g><path style="opacity:1" fill="#eadbb1" d="M 77.5,70.5 C 105.833,70.5 134.167,70.5 162.5,70.5C 162.5,98.8333 162.5,127.167 162.5,155.5C 134.167,155.5 105.833,155.5 77.5,155.5C 77.5,127.167 77.5,98.8333 77.5,70.5 Z M 95.5,88.5 C 112.167,88.5 128.833,88.5 145.5,88.5C 145.5,105.167 145.5,121.833 145.5,138.5C 128.833,138.5 112.167,138.5 95.5,138.5C 95.5,121.833 95.5,105.167 95.5,88.5 Z"/></g>
<g><path style="opacity:1" fill="#eadbb1" d="M 189.5,70.5 C 217.833,70.5 246.167,70.5 274.5,70.5C 274.5,98.8333 274.5,127.167 274.5,155.5C 246.167,155.5 217.833,155.5 189.5,155.5C 189.5,127.167 189.5,98.8333 189.5,70.5 Z M 207.5,88.5 C 224.167,88.5 240.833,88.5 257.5,88.5C 257.5,105.167 257.5,121.833 257.5,138.5C 240.833,138.5 224.167,138.5 207.5,138.5C 207.5,121.833 207.5,105.167 207.5,88.5 Z"/></g>
<g><path style="opacity:1" fill="#eadbb1" d="M 301.5,70.5 C 329.833,70.5 358.167,70.5 386.5,70.5C 386.5,98.8333 386.5,127.167 386.5,155.5C 358.167,155.5 329.833,155.5 301.5,155.5C 301.5,127.167 301.5,98.8333 301.5,70.5 Z M 319.5,88.5 C 336.167,88.5 352.833,88.5 369.5,88.5C 369.5,105.167 369.5,121.833 369.5,138.5C 352.833,138.5 336.167,138.5 319.5,138.5C 319.5,121.833 319.5,105.167 319.5,88.5 Z"/></g>
<g><path style="opacity:1" fill="#eadbb1" d="M 413.5,70.5 C 441.833,70.5 470.167,70.5 498.5,70.5C 498.5,98.8333 498.5,127.167 498.5,155.5C 470.167,155.5 441.833,155.5 413.5,155.5C 413.5,127.167 413.5,98.8333 413.5,70.5 Z"/></g>
<g><path style="opacity:1" fill="#eadbb1" d="M 77.5,182.5 C 105.833,182.5 134.167,182.5 162.5,182.5C 162.5,210.833 162.5,239.167 162.5,267.5C 134.167,267.5 105.833,267.5 77.5,267.5C 77.5,239.167 77.5,210.833 77.5,182.5 Z M 95.5,200.5 C 112.167,200.5 128.833,200.5 145.5,200.5C 145.5,217.167 145.5,233.833 145.5,250.5C 128.833,250.5 112.167,250.5 95.5,250.5C 95.5,233.833 95.5,217.167 95.5,200.5 Z"/></g>
<g><path style="opacity:1" fill="#eadbb1" d="M 189.5,182.5 C 217.833,182.5 246.167,182.5 274.5,182.5C 274.5,210.833 274.5,239.167 274.5,267.5C 246.167,267.5 217.833,267.5 189.5,267.5C 189.5,239.167 189.5,210.833 189.5,182.5 Z"/></g>
<g><path style="opacity:1" fill="#eadbb1" d="M 301.5,182.5 C 329.833,182.5 358.167,182.5 386.5,182.5C 386.5,210.833 386.5,239.167 386.5,267.5C 358.167,267.5 329.833,267.5 301.5,267.5C 301.5,239.167 301.5,210.833 301.5,182.5 Z M 319.5,200.5 C 336.167,200.5 352.833,200.5 369.5,200.5C 369.5,217.167 369.5,233.833 369.5,250.5C 352.833,250.5 336.167,250.5 319.5,250.5C 319.5,233.833 319.5,217.167 319.5,200.5 Z"/></g>
<g><path style="opacity:1" fill="#eadbb1" d="M 413.5,182.5 C 441.833,182.5 470.167,182.5 498.5,182.5C 498.5,210.833 498.5,239.167 498.5,267.5C 470.167,267.5 441.833,267.5 413.5,267.5C 413.5,239.167 413.5,210.833 413.5,182.5 Z M 431.5,200.5 C 448.167,200.5 464.833,200.5 481.5,200.5C 481.5,217.167 481.5,233.833 481.5,250.5C 464.833,250.5 448.167,250.5 431.5,250.5C 431.5,233.833 431.5,217.167 431.5,200.5 Z"/></g>
<g><path style="opacity:1" fill="#eadbb1" d="M 77.5,294.5 C 105.833,294.5 134.167,294.5 162.5,294.5C 162.5,322.833 162.5,351.167 162.5,379.5C 134.167,379.5 105.833,379.5 77.5,379.5C 77.5,351.167 77.5,322.833 77.5,294.5 Z"/></g>
<g><path style="opacity:1" fill="#eadbb1" d="M 189.5,294.5 C 217.833,294.5 246.167,294.5 274.5,294.5C 274.5,322.833 274.5,351.167 274.5,379.5C 246.167,379.5 217.833,379.5 189.5,379.5C 189.5,351.167 189.5,322.833 189.5,294.5 Z M 207.5,312.5 C 224.167,312.5 240.833,312.5 257.5,312.5C 257.5,329.167 257.5,345.833 257.5,362.5C 240.833,362.5 224.167,362.5 207.5,362.5C 207.5,345.833 207.5,329.167 207.5,312.5 Z"/></g>
<g><path style="opacity:1" fill="#eadbb1" d="M 301.5,294.5 C 329.833,294.5 358.167,294.5 386.5,294.5C 386.5,322.833 386.5,351.167 386.5,379.5C 358.167,379.5 329.833,379.5 301.5,379.5C 301.5,351.167 301.5,322.833 301.5,294.5 Z"/></g>
<g><path style="opacity:1" fill="#eadbb1" d="M 413.5,294.5 C 441.833,294.5 470.167,294.5 498.5,294.5C 498.5,322.833 498.5,351.167 498.5,379.5C 470.167,379.5 441.833,379.5 413.5,379.5C 413.5,351.167 413.5,322.833 413.5,294.5 Z M 431.5,312.5 C 448.167,312.5 464.833,312.5 481.5,312.5C 481.5,329.167 481.5,345.833 481.5,362.5C 464.833,362.5 448.167,362.5 431.5,362.5C 431.5,345.833 431.5,329.167 431.5,312.5 Z"/></g>
<g><path style="opacity:1" fill="#eadbb1" d="M 77.5,406.5 C 105.833,406.5 134.167,406.5 162.5,406.5C 162.5,434.833 162.5,463.167 162.5,491.5C 134.167,491.5 105.833,491.5 77.5,491.5C 77.5,463.167 77.5,434.833 77.5,406.5 Z"/></g>
<g><path style="opacity:1" fill="#eadbb1" d="M 189.5,406.5 C 217.833,406.5 246.167,406.5 274.5,406.5C 274.5,434.833 274.5,463.167 274.5,491.5C 246.167,491.5 217.833,491.5 189.5,491.5C 189.5,463.167 189.5,434.833 189.5,406.5 Z M 207.5,424.5 C 224.167,424.5 240.833,424.5 257.5,424.5C 257.5,441.167 257.5,457.833 257.5,474.5C 240.833,474.5 224.167,474.5 207.5,474.5C 207.5,457.833 207.5,441.167 207.5,424.5 Z"/></g>
<g><path style="opacity:1" fill="#eadbb1" d="M 301.5,406.5 C 329.833,406.5 358.167,406.5 386.5,406.5C 386.5,434.833 386.5,463.167 386.5,491.5C 358.167,491.5 329.833,491.5 301.5,491.5C 301.5,463.167 301.5,434.833 301.5,406.5 Z"/></g>
<g><path style="opacity:1" fill="#eadbb1" d="M 413.5,406.5 C 441.833,406.5 470.167,406.5 498.5,406.5C 498.5,434.833 498.5,463.167 498.5,491.5C 470.167,491.5 441.833,491.5 413.5,491.5C 413.5,463.167 413.5,434.833 413.5,406.5 Z M 431.5,424.5 C 448.167,424.5 464.833,424.5 481.5,424.5C 481.5,441.167 481.5,457.833 481.5,474.5C 464.833,474.5 448.167,474.5 431.5,474.5C 431.5,457.833 431.5,441.167 431.5,424.5 Z"/></g>
</svg>
